<?xml version="1.0" encoding="utf-8"?>
<svg version="1.1" id="layer" xmlns="http://www.w3.org/2000/svg" xmlns:xlink="http://www.w3.org/1999/xlink" x="0px" y="0px"
	 viewBox="-153 -46 652 652" style="enable-background:new -153 -46 652 652;" xml:space="preserve" aria-hidden="true" role="img">
<style type="text/css">
	.st0{fill:#4F5454;}
	.st1{fill:#FC9936;}
</style>
<path class="st0" d="M34.9,263c0,1.9,1,3.4,3,4.6c2,1.2,4.3,2.1,7.1,2.9c2.7,0.8,5.5,1.6,8.2,2.4c2.7,0.8,5.1,2.3,7,4.6
	c1.9,2.2,2.9,5.1,2.9,8.6c0,4.6-1.8,8.2-5.3,11c-3.5,2.7-8,4.1-13.5,4.1c-4.9,0-9.1-1.1-12.5-3.2c-3.5-2.1-6-5-7.4-8.5l7.5-4.3
	c0.8,2.4,2.3,4.3,4.5,5.7c2.2,1.4,4.9,2.1,7.9,2.1c2.9,0,5.2-0.5,7.1-1.6c1.9-1.1,2.8-2.8,2.8-5.2c0-2-1-3.5-2.9-4.7
	c-2-1.2-4.3-2.2-7-3c-2.7-0.8-5.5-1.6-8.2-2.5c-2.7-0.9-5.1-2.3-7.1-4.4c-2-2.1-2.9-4.9-2.9-8.2c0-4.4,1.7-7.9,5-10.8
	c3.4-2.8,7.6-4.2,12.7-4.2c4.1,0,7.7,0.9,10.9,2.7c3.2,1.8,5.6,4.4,7.2,7.7l-7.3,4.1c-1.8-4.3-5.4-6.4-10.8-6.4
	c-2.5,0-4.6,0.5-6.3,1.7C35.7,259.3,34.9,260.9,34.9,263 M98.3,248.3c-7.3,0-12.7,2.9-16.2,8.6v-7.2h-8.8v50.2h8.8v-26.6
	c0-5.6,1.3-9.7,4-12.5c2.7-2.7,6.1-4.1,10.5-4.1c3.9,0,6.9,1.1,9.1,3.3c2.2,2.2,3.3,5.4,3.3,9.5v30.3h8.8v-30.8
	c0-6.3-1.8-11.4-5.3-15.1C108.9,250.1,104.2,248.3,98.3,248.3 M153.7,292.6c-5,0-9.2-1.7-12.7-5.2c-3.4-3.4-5.1-7.7-5.1-12.8
	c0-5,1.7-9.3,5.1-12.8c3.4-3.5,7.6-5.2,12.7-5.2c5.1,0,9.4,1.7,12.8,5.2c3.4,3.4,5.1,7.7,5.1,12.8c0,5.1-1.7,9.3-5.1,12.8
	C163,290.9,158.8,292.6,153.7,292.6 M171.5,258.1c-4.4-6.6-10.7-9.9-19-9.9c-7,0-13,2.6-17.9,7.7c-4.9,5.1-7.4,11.4-7.4,18.7
	c0,7.4,2.5,13.6,7.4,18.7c4.9,5.1,10.9,7.7,17.9,7.7c8.3,0,14.6-3.3,19-9.9v8.6h8.8v-50.2h-8.8V258.1z M218.9,292.6
	c-5,0-9.3-1.7-12.8-5.2c-3.4-3.4-5.1-7.7-5.1-12.8c0-5,1.7-9.3,5.1-12.8c3.5-3.5,7.7-5.2,12.8-5.2c5,0,9.2,1.7,12.7,5.2
	c3.4,3.4,5.1,7.7,5.1,12.8c0,5-1.7,9.3-5.1,12.8C228.2,290.9,224,292.6,218.9,292.6 M220,248.3c-8.3,0-14.6,3.3-19,9.9v-8.6h-8.8
	v67.5h8.8v-25.9c4.4,6.6,10.7,9.9,19,9.9c7,0,13-2.5,17.9-7.7c4.9-5.1,7.4-11.4,7.4-18.7c0-7.4-2.5-13.6-7.4-18.7
	C233,250.8,227.1,248.3,220,248.3 M277.6,292.6c-5,0-9.2-1.7-12.7-5.2c-3.4-3.4-5.1-7.7-5.1-12.8c0-5,1.7-9.3,5.1-12.8
	c3.4-3.5,7.6-5.2,12.7-5.2c5.1,0,9.4,1.7,12.8,5.2c3.4,3.4,5.1,7.7,5.1,12.8c0,5-1.7,9.3-5.1,12.8
	C286.9,290.9,282.7,292.6,277.6,292.6 M295.5,258.2c-4.4-6.6-10.7-9.9-19-9.9c-7,0-13,2.6-17.9,7.7c-4.9,5.1-7.4,11.4-7.4,18.7
	c0,7.4,2.5,13.6,7.4,18.7c4.9,5.1,10.9,7.7,17.9,7.7c8.3,0,14.6-3.3,19-9.9v8.6h8.8v-67.5h-8.8V258.2z M340.8,292.5
	c-5,0-9.1-1.7-12.5-5.1c-3.4-3.5-5.1-7.7-5.1-12.8c0-5.1,1.7-9.4,5.1-12.8c3.4-3.4,7.6-5.1,12.5-5.1c5,0,9.2,1.7,12.7,5.1
	c3.4,3.5,5.1,7.7,5.1,12.8c0,5.1-1.7,9.4-5.1,12.8C350.1,290.8,345.9,292.5,340.8,292.5 M359.6,293.5c5.1-5.1,7.7-11.4,7.7-18.8
	c0-7.4-2.6-13.7-7.7-18.8c-5.2-5-11.4-7.6-18.8-7.6c-7.4,0-13.6,2.5-18.7,7.6c-5.1,5.1-7.7,11.4-7.7,18.8c0,7.5,2.6,13.7,7.7,18.8
	c5.1,5,11.4,7.6,18.7,7.6C348.2,301.1,354.5,298.6,359.6,293.5 M400.4,301.1c4.9,0,9.3-1.2,13.4-3.6c4-2.4,7.1-5.5,9.2-9.5l-7.4-4.3
	c-1.4,2.7-3.5,4.8-6.1,6.4c-2.7,1.6-5.7,2.4-9.1,2.4c-5,0-9.2-1.7-12.6-5.1c-3.3-3.4-5-7.6-5-12.7c0-5.1,1.6-9.4,5-12.8
	c3.3-3.4,7.5-5.1,12.6-5.1c3.3,0,6.4,0.9,9,2.4c2.7,1.6,4.6,3.8,5.9,6.5l7.3-4.2c-2-4-4.9-7.2-8.8-9.6c-4-2.4-8.5-3.6-13.4-3.6
	c-7.5,0-13.8,2.5-18.9,7.6c-5,5.1-7.5,11.3-7.5,18.8c0,7.5,2.5,13.7,7.5,18.8C386.5,298.5,392.8,301.1,400.4,301.1 M440.9,263
	c0-2.1,0.9-3.7,2.6-4.9c1.8-1.2,3.8-1.7,6.3-1.7c5.4,0,8.9,2.2,10.8,6.4l7.3-4.1c-1.6-3.3-4-5.8-7.2-7.7c-3.2-1.8-6.8-2.7-10.9-2.7
	c-5.1,0-9.3,1.4-12.7,4.2c-3.3,2.9-5,6.4-5,10.8c0,3.3,1,6.1,2.9,8.2c1.9,2.1,4.3,3.6,7.1,4.4c2.7,0.8,5.5,1.7,8.2,2.5
	c2.7,0.8,5,1.8,7,3c1.9,1.2,2.9,2.7,2.9,4.7c0,2.4-0.9,4.1-2.8,5.2c-1.9,1.1-4.3,1.6-7.1,1.6c-3,0-5.7-0.7-7.9-2.1
	c-2.2-1.4-3.7-3.3-4.5-5.7l-7.5,4.3c1.5,3.5,4,6.4,7.4,8.5c3.5,2.1,7.7,3.2,12.5,3.2c5.5,0,10-1.4,13.5-4.1c3.5-2.7,5.3-6.4,5.3-11
	c0-3.5-1-6.3-2.9-8.6c-1.9-2.3-4.3-3.8-7-4.6c-2.7-0.8-5.5-1.6-8.2-2.4c-2.7-0.8-5.1-1.8-7.1-2.9C441.9,266.4,440.9,264.9,440.9,263
	"/>
<path class="st1" d="M-108.3,300.5h21.4v21.4h-42.8v-42.8h21.4V300.5z M-56.8,270.4h21.4v-42.8h-42.8V249h21.4V270.4z"/>
<path class="st0" d="M-86.9,232.3V249h-21.4v24c-5.6,0-10.7-2.1-14.7-5.4c-4.9-4.1-8-10.3-8-17.3c0-12.5,10.2-22.7,22.7-22.7h21.4
	V232.3z M-41.8,282.3c-4-3.5-9.2-5.7-15-5.7v24h-21.4V317v4.9h21.4c12.5,0,22.7-10.2,22.7-22.7C-34.1,292.5-37.1,286.4-41.8,282.3"
	/>
</svg>
