<?xml version="1.0" encoding="iso-8859-1"?>
<!-- Uploaded to: SVG Repo, www.svgrepo.com, Generator: SVG Repo Mixer Tools -->
<svg height="800px" width="800px" version="1.1" id="Layer_1" xmlns="http://www.w3.org/2000/svg" xmlns:xlink="http://www.w3.org/1999/xlink" 
	 viewBox="0 0 392.663 392.663" xml:space="preserve">
<path style="fill:#FFFFFF;" d="M21.786,255.122c0,11.055,8.986,20.04,20.04,20.04h28.897c6.012,0,10.925,4.848,10.925,10.925v70.077
	l81.131-77.899c2.004-1.939,4.719-3.038,7.564-3.038h180.493c11.055,0,20.04-8.986,20.04-20.04V41.918
	c0-11.055-8.986-20.04-20.04-20.04H41.826c-11.055,0-20.04,8.986-20.04,20.04"/>
<polygon style="fill:#56ACE0;" points="103.37,253.247 43.636,253.247 43.636,43.599 348.897,43.599 348.897,253.247 
	157.091,253.247 103.37,304.835 "/>
<path style="fill:#194F82;" d="M350.707,0.027H41.826C18.747,0.027,0,18.71,0,41.853v213.269c0,23.079,18.683,41.826,41.826,41.826
	h18.036V381.7c0,9.568,11.507,14.545,18.489,7.887l96.388-92.638h176.097c23.079,0,41.826-18.683,41.826-41.826V41.853
	C392.533,18.71,373.851,0.027,350.707,0.027z M370.747,255.122c0,11.055-8.986,20.04-20.04,20.04H170.214
	c-2.78,0-5.495,1.099-7.564,3.038l-81.131,77.834v-70.077c0-6.012-4.848-10.925-10.925-10.925H41.826
	c-11.055,0-20.04-8.986-20.04-20.04V178.71h18.554c6.012,0,10.925-4.848,10.925-10.925c0-6.012-4.848-10.925-10.925-10.925H21.786
	v-17.067h38.012c6.012,0,10.925-4.848,10.925-10.925c0-6.012-4.848-10.925-10.925-10.925H21.786V41.659
	c0-11.055,8.986-20.04,20.04-20.04h308.945c11.055,0,20.04,8.986,20.04,20.04v213.463H370.747z"/>
<path style="fill:#FFC10D;" d="M271.58,118.847c0-18.877-15.321-34.133-34.133-34.133c-13.446,0-25.729,7.952-31.224,20.299
	c-4.655,9.503-16.614,7.822-19.911,0c-5.495-12.347-17.713-20.299-31.224-20.299c-18.877,0-34.133,15.321-34.133,34.133
	c0,36.848,49.907,75.636,75.184,91.41C221.349,193.837,271.58,153.886,271.58,118.847z"/>
<path style="fill:#194F82;" d="M237.446,62.928c-15.903,0-30.772,6.788-41.18,18.101c-10.408-11.378-25.277-18.101-41.18-18.101
	c-30.836,0-55.919,25.083-55.919,55.919c0,60.638,87.919,111.58,91.733,113.648c3.491,1.875,7.37,1.939,11.055-0.129
	c3.685-2.263,91.475-55.79,91.475-113.584C293.43,88.011,268.283,62.928,237.446,62.928z M120.954,118.847
	c0-18.877,15.321-34.133,34.133-34.133c13.446,0,25.729,7.952,31.224,20.299c3.297,7.822,15.321,9.503,19.911,0
	c5.495-12.347,17.713-20.299,31.224-20.299c18.877,0,34.133,15.321,34.133,34.133c0,34.974-50.166,74.925-75.442,91.41
	C170.925,194.548,120.954,155.696,120.954,118.847z"/>
</svg>